PathFileType	4	(X/Y/Z)	F:\biomechanics\vid_Sports2D\vid_Sports2D_m_person00.trc
DataRate	CameraRate	NumFrames	NumMarkers	Units	OrigDataRate	OrigDataStartFrame	OrigNumFrames
250.0	250.0	6	22	m	250.0	576	769
Frame#	Time	Hip			RHip			RKnee			RAnkle			RBigToe			RSmallToe			RHeel			LHip			LKnee			LAnkle			LBigToe			LSmallToe			LHeel			Neck			Head			Nose			RShoulder			RElbow			RWrist			LShoulder			LElbow			LWrist			
		X1	Y1	Z1	X2	Y2	Z2	X3	Y3	Z3	X4	Y4	Z4	X5	Y5	Z5	X6	Y6	Z6	X7	Y7	Z7	X8	Y8	Z8	X9	Y9	Z9	X10	Y10	Z10	X11	Y11	Z11	X12	Y12	Z12	X13	Y13	Z13	X14	Y14	Z14	X15	Y15	Z15	X16	Y16	Z16	X17	Y17	Z17	X18	Y18	Z18	X19	Y19	Z19	X20	Y20	Z20	X21	Y21	Z21	X22	Y22	Z22
615	2.463048327137547	1.7552524614606304	1.1168050804648462	0.0	1.7902867929874386	1.1197941009410912	0.105	1.8663110546805683	0.6780361272091726	0.0886	1.7915756236779032	0.2397399367671368	0.0972	1.913259874038231	0.10291486173236125	0.0766	1.8779434478526775	0.0964862517095471	0.12	1.7397176432892003	0.2005604436307292	0.0883	1.7396451477285362	1.1264350765779036	-0.105	1.780747028003537	0.6828550506148857	-0.0886	1.7522010314791892	0.2839699534248742	-0.0972	1.9175692742655301	0.21169816872240974	-0.0766	1.8982624338483698	0.22181312430464742	-0.12	1.6777964449173441	0.23963172861231855	-0.0883	1.7141257563402106	1.66291481444389	0.0	1.6380985029336708	1.9156710430651793	0.0	1.7692831337200299	1.828129015625088	0.0	1.8048681922237875	1.6067589069989652	0.2016	2.0072645020629647	1.8095951333701819	0.1613	2.126957903990303	2.017747651312482	0.12	1.6765877546578642	1.619593220873524	-0.2016	1.876391508733551	1.7772708303205738	-0.1613	1.9789985936264907	1.9740851159887727	-0.12
616	2.4670532837670387	1.7560958917587035	1.1143967888829318	0.0	1.7907368075354015	1.1172716216988496	0.105	1.8672928399477002	0.6757312383207763	0.0886	1.7933638745823144	0.23713308853026943	0.0972	1.9156033318532228	0.10081768893167214	0.0766	1.879998562553267	0.09427673108971217	0.12	1.741907475333897	0.19800615202352057	0.0883	1.7405428835500447	1.1239862324812127	-0.105	1.7823379526259913	0.680470361925926	-0.0886	1.754521845799201	0.28141830391746675	-0.0972	1.9197412919438295	0.2097468493473643	-0.0766	1.9006685887405712	0.21934972875413664	-0.12	1.6806983098169561	0.23711735182935118	-0.0883	1.7150406655315127	1.6606254380673469	0.0	1.639902962293726	1.9132158247161437	0.0	1.7702169147733586	1.8255920315040253	0.0	1.8060201102950666	1.604247981620969	0.2016	2.0091044502240214	1.806533485713569	0.1613	2.129548157012363	2.0139666481757486	0.12	1.6771931121175827	1.6168324942743664	-0.2016	1.8780807471736012	1.772957060956755	-0.1613	1.9812289780761434	1.9700363616966072	-0.12
617	2.471058240396531	1.7569345433059813	1.1119482380773704	0.0	1.7911611742241071	1.1147134039788302	0.105	1.868267157115391	0.6734101672485242	0.0886	1.7951217053083521	0.23449382884913744	0.0972	1.9179681618194873	0.09869533351921723	0.0766	1.8820719403775152	0.09204928721621582	0.12	1.7440566717825559	0.1954165503564629	0.0883	1.7414316687996692	1.1215022611546397	-0.105	1.7840003006387282	0.6780360383885494	-0.0886	1.756876726899241	0.27882051486783427	-0.0972	1.921924971924755	0.20768151853038438	-0.0766	1.9030750305017339	0.21675533129525978	-0.12	1.6836609467204187	0.23453161846642032	-0.0883	1.7159225103067604	1.6582906697621436	0.0	1.6416265600705084	1.9107164384804742	0.0	1.7710975309795673	1.8230255096226	0.0	1.8071375189356098	1.601689700662451	0.2016	2.010905409133103	1.8033572112680984	0.1613	2.1321176083622992	2.0100961854212556	0.12	1.677739301464652	1.614052793800495	-0.2016	1.879726786764283	1.7685782147438256	-0.1613	1.9834579150733977	1.9659337109073522	-0.12
618	2.4750631970260226	1.757765210143908	1.109460588976258	0.0	1.791556699905784	1.112121875882124	0.105	1.8692356429963466	0.6710738984216884	0.0886	1.7968487350998943	0.2318253217556685	0.0972	1.9203528331688773	0.09654792184085428	0.0766	1.8841649116370212	0.08980374610818308	0.12	1.746161277590358	0.19279046160577495	0.0883	1.7423091012074419	1.1189828240328656	-0.105	1.785726157302479	0.6755518950554005	-0.0886	1.7592661068187838	0.27617771328827573	-0.0972	1.9241213474957406	0.20549859865974293	-0.0766	1.9054847412894083	0.21402704131363373	-0.12	1.6866833545397113	0.23187165828942308	-0.0883	1.7167701865822393	1.6559105231402058	0.0	1.6432627273932336	1.9081796985407806	0.0	1.7719258477344542	1.8204344398548504	0.0	1.8082183469521855	1.5990854179717497	0.2016	2.0126683581155325	1.8000715751460687	0.1613	2.134670874064917	2.0061414892718465	0.12	1.678222818959074	1.6112487745532267	-0.2016	1.8813292799879722	1.764142513809162	-0.1613	1.9856817378264233	1.9617817539039204	-0.12
619	2.479068153655515	1.7585856417430954	1.106934484174115	0.0	1.7919207526154473	1.109499908968134	0.105	1.8702003429750558	0.6687225455531258	0.0886	1.798545484117655	0.22913129450477357	0.0972	1.9227562007915897	0.0943753730776872	0.0766	1.8862773664253114	0.08753921589177396	0.12	1.7482182780233955	0.19012690168772145	0.0883	1.7431742486375017	1.1164278355575776	-0.105	1.7875047247476814	0.673017585904402	-0.0886	1.761688777442517	0.2734924504924004	-0.0972	1.9263309608662382	0.20319849905278167	-0.0766	1.9079016132566742	0.21116575403734567	-0.12	1.6897625396221791	0.2291358046255096	-0.0883	1.717583654588762	1.6534841464251309	0.0	1.6448049135092304	1.9056122452101958	0.0	1.7727023812558547	1.8178239978875468	0.0	1.809261806163709	1.5964358633006541	0.2016	2.0143948938071183	1.796682553193339	0.1613	2.1372124377397395	2.002108264106844	0.12	1.6786420339049302	1.608414844138074	-0.2016	1.8828908417616677	1.759660419885927	-0.1613	1.9878979336141491	1.9575882010473349	-0.12
620	2.4830731102850065	1.7593943679349435	1.1043713417639485	0.0	1.7922520424736814	1.1068499831753347	0.105	1.8711633054185544	0.6663552235106006	0.0886	1.8002134278071102	0.22641450866540658	0.0972	1.9251774616547717	0.09217729294473286	0.0766	1.8884087493076234	0.08525418433520844	0.12	1.750225853387928	0.18742458196054407	0.0883	1.7440271774810674	1.1138377051524209	-0.105	1.7893236787816917	0.6704335511488733	-0.0886	1.7641417354549733	0.2707685475422533	-0.0972	1.9285532050006464	0.20078624522266791	-0.0766	1.910328868150725	0.2081773877889062	-0.12	1.692892828161648	0.22632452051526492	-0.0883	1.7183634518974071	1.6510094593034648	0.0	1.6462464648768436	1.9030192087756104	0.0	1.7734271988052543	1.8151985306481404	0.0	1.8102682588232877	1.5937408212909494	0.2016	2.0160861302728095	1.7931964940977414	0.1613	2.139746213828666	1.9980021884353778	0.12	1.6789971298679014	1.6055455757741088	-0.2016	1.8844150471351624	1.7551442433777802	-0.1613	1.990105635113853	1.9533632074929252	-0.12
